<svg width="97" height="31" viewBox="0 0 97 31" fill="none" xmlns="http://www.w3.org/2000/svg">
<path d="M23 5L29 19L23 16.2966L17 19L23 5Z" fill="#F21818"/>
<path d="M11.1451 19H5.98881V4.45455H11.1877C12.6507 4.45455 13.9102 4.74574 14.9661 5.32812C16.022 5.90578 16.834 6.73674 17.4022 7.82102C17.9751 8.9053 18.2615 10.2027 18.2615 11.7131C18.2615 13.2282 17.9751 14.5303 17.4022 15.6193C16.834 16.7083 16.0172 17.544 14.9519 18.1264C13.8913 18.7088 12.6223 19 11.1451 19ZM9.0641 16.3651H11.0172C11.9263 16.3651 12.691 16.2041 13.3113 15.8821C13.9363 15.5554 14.405 15.0511 14.7175 14.3693C15.0347 13.6828 15.1934 12.7973 15.1934 11.7131C15.1934 10.6383 15.0347 9.75994 14.7175 9.07812C14.405 8.39631 13.9386 7.89441 13.3184 7.57244C12.6981 7.25047 11.9334 7.08949 11.0243 7.08949H9.0641V16.3651Z" fill="white"/>
<path d="M26.0852 6.99006V4.45455H38.0312V6.99006H33.5781V19H30.5384V6.99006H26.0852ZM48.983 4.45455H52.0582V13.9006C52.0582 14.9612 51.8049 15.8892 51.2983 16.6847C50.7964 17.4801 50.0933 18.1004 49.1889 18.5455C48.2846 18.9858 47.2311 19.206 46.0284 19.206C44.821 19.206 43.7652 18.9858 42.8608 18.5455C41.9564 18.1004 41.2533 17.4801 40.7514 16.6847C40.2495 15.8892 39.9986 14.9612 39.9986 13.9006V4.45455H43.0739V13.6378C43.0739 14.1918 43.1946 14.6842 43.4361 15.1151C43.6823 15.5459 44.0279 15.8845 44.473 16.1307C44.9181 16.3769 45.4366 16.5 46.0284 16.5C46.625 16.5 47.1435 16.3769 47.5838 16.1307C48.0289 15.8845 48.3722 15.5459 48.6136 15.1151C48.8598 14.6842 48.983 14.1918 48.983 13.6378V4.45455ZM54.5884 4.45455H58.381L62.3867 14.2273H62.5572L66.5629 4.45455H70.3555V19H67.3725V9.53267H67.2518L63.4876 18.929H61.4563L57.6921 9.49716H57.5714V19H54.5884V4.45455Z" fill="white"/>
</svg>
