<svg width="176" height="74" viewBox="0 0 176 74" fill="none" xmlns="http://www.w3.org/2000/svg">
<path d="M56.2354 8.88L71.2138 38.48L56.2354 30.5867L41.7109 38.48L56.2354 8.88Z" fill="#F21818"/>
<path d="M28.3017 39H17.9892V9.90909H28.3869C31.3131 9.90909 33.832 10.4915 35.9438 11.6562C38.0555 12.8116 39.6796 14.4735 40.8159 16.642C41.9618 18.8106 42.5347 21.4053 42.5347 24.4261C42.5347 27.4564 41.9618 30.0606 40.8159 32.2386C39.6796 34.4167 38.046 36.0881 35.9154 37.2528C33.7941 38.4176 31.2563 39 28.3017 39ZM24.1398 33.7301H28.046C29.8642 33.7301 31.3936 33.4081 32.6341 32.7642C33.8841 32.1108 34.8216 31.1023 35.4466 29.7386C36.0811 28.3655 36.3983 26.5947 36.3983 24.4261C36.3983 22.2765 36.0811 20.5199 35.4466 19.1562C34.8216 17.7926 33.8888 16.7888 32.6483 16.1449C31.4078 15.5009 29.8784 15.179 28.0602 15.179H24.1398V33.7301Z" fill="#040404"/>
<path d="M68.0953 14.9801V9.90909H91.9873V14.9801H83.0811V39H77.0015V14.9801H68.0953ZM113.891 9.90909H120.041V28.8011C120.041 30.9223 119.535 32.7784 118.521 34.3693C117.518 35.9602 116.111 37.2008 114.303 38.0909C112.494 38.9716 110.387 39.4119 107.982 39.4119C105.567 39.4119 103.455 38.9716 101.646 38.0909C99.8377 37.2008 98.4315 35.9602 97.4277 34.3693C96.4239 32.7784 95.922 30.9223 95.922 28.8011V9.90909H102.073V28.2756C102.073 29.3835 102.314 30.3684 102.797 31.2301C103.289 32.0919 103.981 32.7689 104.871 33.2614C105.761 33.7538 106.798 34 107.982 34C109.175 34 110.212 33.7538 111.092 33.2614C111.983 32.7689 112.669 32.0919 113.152 31.2301C113.645 30.3684 113.891 29.3835 113.891 28.2756V9.90909ZM125.102 9.90909H132.687L140.698 29.4545H141.039L149.051 9.90909H156.636V39H150.67V20.0653H150.428L142.9 38.858H138.837L131.309 19.9943H131.068V39H125.102V9.90909Z" fill="black"/>
<path d="M21.0263 51.7103V63.3467H19.2706V51.7103H21.0263ZM37.2095 51.7103V63.3467H35.5959L29.6811 54.8126H29.5732V63.3467H27.8175V51.7103H29.4425L35.3629 60.2558H35.4709V51.7103H37.2095ZM53.397 51.7103V63.3467H51.7834L45.8686 54.8126H45.7607V63.3467H44.005V51.7103H45.63L51.5504 60.2558H51.6584V51.7103H53.397ZM70.3004 57.5285C70.3004 58.7709 70.0732 59.8391 69.6186 60.733C69.1641 61.6232 68.541 62.3088 67.7493 62.7898C66.9614 63.2671 66.0656 63.5058 65.0618 63.5058C64.0542 63.5058 63.1546 63.2671 62.3629 62.7898C61.575 62.3088 60.9538 61.6213 60.4993 60.7273C60.0447 59.8334 59.8175 58.7671 59.8175 57.5285C59.8175 56.2861 60.0447 55.2198 60.4993 54.3296C60.9538 53.4357 61.575 52.7501 62.3629 52.2728C63.1546 51.7917 64.0542 51.5512 65.0618 51.5512C66.0656 51.5512 66.9614 51.7917 67.7493 52.2728C68.541 52.7501 69.1641 53.4357 69.6186 54.3296C70.0732 55.2198 70.3004 56.2861 70.3004 57.5285ZM68.5618 57.5285C68.5618 56.5815 68.4084 55.7842 68.1016 55.1364C67.7985 54.4849 67.3819 53.9925 66.8516 53.6592C66.325 53.322 65.7285 53.1535 65.0618 53.1535C64.3913 53.1535 63.7929 53.322 63.2663 53.6592C62.7398 53.9925 62.3232 54.4849 62.0163 55.1364C61.7133 55.7842 61.5618 56.5815 61.5618 57.5285C61.5618 58.4755 61.7133 59.2747 62.0163 59.9262C62.3232 60.5739 62.7398 61.0664 63.2663 61.4035C63.7929 61.7368 64.3913 61.9035 65.0618 61.9035C65.7285 61.9035 66.325 61.7368 66.8516 61.4035C67.3819 61.0664 67.7985 60.5739 68.1016 59.9262C68.4084 59.2747 68.5618 58.4755 68.5618 57.5285ZM77.7408 51.7103L80.9794 61.1876H81.1101L84.3487 51.7103H86.2464L82.0589 63.3467H80.0305L75.843 51.7103H77.7408ZM93.1442 63.3467H91.2805L95.468 51.7103H97.4964L101.684 63.3467H99.8203L96.5305 53.8239H96.4396L93.1442 63.3467ZM93.4567 58.7898H99.5021V60.2671H93.4567V58.7898ZM107.025 53.2217V51.7103H116.031V53.2217H112.4V63.3467H110.65V53.2217H107.025ZM124.011 51.7103V63.3467H122.255V51.7103H124.011ZM140.91 57.5285C140.91 58.7709 140.683 59.8391 140.228 60.733C139.773 61.6232 139.15 62.3088 138.359 62.7898C137.571 63.2671 136.675 63.5058 135.671 63.5058C134.664 63.5058 133.764 63.2671 132.972 62.7898C132.184 62.3088 131.563 61.6213 131.109 60.7273C130.654 59.8334 130.427 58.7671 130.427 57.5285C130.427 56.2861 130.654 55.2198 131.109 54.3296C131.563 53.4357 132.184 52.7501 132.972 52.2728C133.764 51.7917 134.664 51.5512 135.671 51.5512C136.675 51.5512 137.571 51.7917 138.359 52.2728C139.15 52.7501 139.773 53.4357 140.228 54.3296C140.683 55.2198 140.91 56.2861 140.91 57.5285ZM139.171 57.5285C139.171 56.5815 139.018 55.7842 138.711 55.1364C138.408 54.4849 137.991 53.9925 137.461 53.6592C136.934 53.322 136.338 53.1535 135.671 53.1535C135.001 53.1535 134.402 53.322 133.876 53.6592C133.349 53.9925 132.933 54.4849 132.626 55.1364C132.323 55.7842 132.171 56.5815 132.171 57.5285C132.171 58.4755 132.323 59.2747 132.626 59.9262C132.933 60.5739 133.349 61.0664 133.876 61.4035C134.402 61.7368 135.001 61.9035 135.671 61.9035C136.338 61.9035 136.934 61.7368 137.461 61.4035C137.991 61.0664 138.408 60.5739 138.711 59.9262C139.018 59.2747 139.171 58.4755 139.171 57.5285ZM156.725 51.7103V63.3467H155.112L149.197 54.8126H149.089V63.3467H147.333V51.7103H148.958L154.879 60.2558H154.987V51.7103H156.725Z" fill="black"/>
<line x1="15.2601" y1="45.3733" x2="160.74" y2="45.3733" stroke="#F21818" stroke-width="2"/>
</svg>
