<svg width="213" height="78" viewBox="0 0 213 78" fill="none" xmlns="http://www.w3.org/2000/svg">
<path d="M71.8211 12.5L89.3526 45L71.8211 37L54.8208 45L71.8211 12.5Z" fill="#F21818"/>
<path d="M37.9482 46H25.5732V11.0909H38.0504C41.5618 11.0909 44.5845 11.7898 47.1186 13.1875C49.6527 14.5739 51.6016 16.5682 52.9652 19.1705C54.3402 21.7727 55.0277 24.8864 55.0277 28.5114C55.0277 32.1477 54.3402 35.2727 52.9652 37.8864C51.6016 40.5 49.6413 42.5057 47.0845 43.9034C44.5391 45.3011 41.4936 46 37.9482 46ZM32.9538 39.6761H37.6413C39.8232 39.6761 41.6584 39.2898 43.147 38.517C44.647 37.733 45.772 36.5227 46.522 34.8864C47.2834 33.2386 47.6641 31.1136 47.6641 28.5114C47.6641 25.9318 47.2834 23.8239 46.522 22.1875C45.772 20.5511 44.6527 19.3466 43.1641 18.5739C41.6754 17.8011 39.8402 17.4148 37.6584 17.4148H32.9538V39.6761Z" fill="white"/>
<path d="M86.378 17.1761V11.0909H115.048V17.1761H104.361V46H97.0655V17.1761H86.378ZM141.333 11.0909H148.713V33.7614C148.713 36.3068 148.105 38.5341 146.889 40.4432C145.685 42.3523 143.997 43.8409 141.827 44.9091C139.656 45.9659 137.128 46.4943 134.242 46.4943C131.344 46.4943 128.81 45.9659 126.639 44.9091C124.469 43.8409 122.781 42.3523 121.577 40.4432C120.372 38.5341 119.77 36.3068 119.77 33.7614V11.0909H127.151V33.1307C127.151 34.4602 127.44 35.642 128.02 36.6761C128.611 37.7102 129.44 38.5227 130.509 39.1136C131.577 39.7045 132.821 40 134.242 40C135.673 40 136.918 39.7045 137.975 39.1136C139.043 38.5227 139.867 37.7102 140.446 36.6761C141.037 35.642 141.333 34.4602 141.333 33.1307V11.0909ZM154.786 11.0909H163.888L173.502 34.5455H173.911L183.524 11.0909H192.627V46H185.467V23.2784H185.178L176.144 45.8295H171.269L162.234 23.1932H161.945V46H154.786V11.0909Z" fill="white"/>
<path d="M26.2828 62.4545V77H24.0882V62.4545H26.2828ZM46.5119 62.4545V77H44.4949L37.1014 66.3324H36.9664V77H34.7718V62.4545H36.8031L44.2037 73.1364H44.3386V62.4545H46.5119ZM66.7463 62.4545V77H64.7292L57.3358 66.3324H57.2008V77H55.0062V62.4545H57.0375L64.438 73.1364H64.573V62.4545H66.7463ZM87.8755 69.7273C87.8755 71.2803 87.5914 72.6155 87.0233 73.733C86.4551 74.8456 85.6762 75.7027 84.6866 76.304C83.7018 76.9006 82.582 77.1989 81.3272 77.1989C80.0678 77.1989 78.9432 76.9006 77.9537 76.304C76.9688 75.7027 76.1923 74.8433 75.6241 73.7259C75.0559 72.6084 74.7718 71.2756 74.7718 69.7273C74.7718 68.1742 75.0559 66.8414 75.6241 65.7287C76.1923 64.6113 76.9688 63.7543 77.9537 63.1577C78.9432 62.5563 80.0678 62.2557 81.3272 62.2557C82.582 62.2557 83.7018 62.5563 84.6866 63.1577C85.6762 63.7543 86.4551 64.6113 87.0233 65.7287C87.5914 66.8414 87.8755 68.1742 87.8755 69.7273ZM85.7022 69.7273C85.7022 68.5436 85.5105 67.5469 85.127 66.7372C84.7482 65.9228 84.2273 65.3073 83.5645 64.8906C82.9063 64.4692 82.1606 64.2585 81.3272 64.2585C80.4892 64.2585 79.7411 64.4692 79.0829 64.8906C78.4248 65.3073 77.9039 65.9228 77.5204 66.7372C77.1416 67.5469 76.9522 68.5436 76.9522 69.7273C76.9522 70.911 77.1416 71.91 77.5204 72.7244C77.9039 73.5341 78.4248 74.1496 79.0829 74.571C79.7411 74.9877 80.4892 75.196 81.3272 75.196C82.1606 75.196 82.9063 74.9877 83.5645 74.571C84.2273 74.1496 84.7482 73.5341 85.127 72.7244C85.5105 71.91 85.7022 70.911 85.7022 69.7273ZM97.176 62.4545L101.224 74.3011H101.388L105.436 62.4545H107.808L102.574 77H100.038L94.8038 62.4545H97.176ZM116.43 77H114.101L119.335 62.4545H121.871L127.105 77H124.775L120.663 65.0966H120.55L116.43 77ZM116.821 71.304H124.378V73.1506H116.821V71.304ZM133.781 64.3438V62.4545H145.038V64.3438H140.5V77H138.312V64.3438H133.781ZM155.013 62.4545V77H152.819V62.4545H155.013ZM176.137 69.7273C176.137 71.2803 175.853 72.6155 175.285 73.733C174.717 74.8456 173.938 75.7027 172.948 76.304C171.963 76.9006 170.844 77.1989 169.589 77.1989C168.329 77.1989 167.205 76.9006 166.215 76.304C165.231 75.7027 164.454 74.8433 163.886 73.7259C163.318 72.6084 163.034 71.2756 163.034 69.7273C163.034 68.1742 163.318 66.8414 163.886 65.7287C164.454 64.6113 165.231 63.7543 166.215 63.1577C167.205 62.5563 168.329 62.2557 169.589 62.2557C170.844 62.2557 171.963 62.5563 172.948 63.1577C173.938 63.7543 174.717 64.6113 175.285 65.7287C175.853 66.8414 176.137 68.1742 176.137 69.7273ZM173.964 69.7273C173.964 68.5436 173.772 67.5469 173.389 66.7372C173.01 65.9228 172.489 65.3073 171.826 64.8906C171.168 64.4692 170.422 64.2585 169.589 64.2585C168.751 64.2585 168.003 64.4692 167.345 64.8906C166.686 65.3073 166.166 65.9228 165.782 66.7372C165.403 67.5469 165.214 68.5436 165.214 69.7273C165.214 70.911 165.403 71.91 165.782 72.7244C166.166 73.5341 166.686 74.1496 167.345 74.571C168.003 74.9877 168.751 75.196 169.589 75.196C170.422 75.196 171.168 74.9877 171.826 74.571C172.489 74.1496 173.01 73.5341 173.389 72.7244C173.772 71.91 173.964 70.911 173.964 69.7273ZM195.906 62.4545V77H193.889L186.496 66.3324H186.361V77H184.166V62.4545H186.198L193.598 73.1364H193.733V62.4545H195.906Z" fill="white"/>
<line x1="22" y1="55" x2="198" y2="55" stroke="#F21818" stroke-width="2"/>
</svg>
