<svg width="34" height="39" viewBox="0 0 34 39" fill="none" xmlns="http://www.w3.org/2000/svg">
<path d="M17 18.6066C19.0056 18.6066 20.9291 17.6528 22.3473 15.955C23.7655 14.2571 24.5623 11.9544 24.5623 9.55331C24.5623 7.15222 23.7655 4.84948 22.3473 3.15165C20.9291 1.45383 19.0056 0.5 17 0.5C14.9944 0.5 13.0709 1.45383 11.6527 3.15165C10.2345 4.84948 9.43775 7.15222 9.43775 9.55331C9.43775 11.9544 10.2345 14.2571 11.6527 15.955C13.0709 17.6528 14.9944 18.6066 17 18.6066ZM17 22.5842C6.9455 22.5842 0.5 29.2267 0.5 32.4609V38.5H33.5V32.4609C33.5 28.5497 27.398 22.5842 17 22.5842Z" fill="white" stroke="white"/>
</svg>
