<svg width="18" height="18" viewBox="0 0 18 18" fill="none" xmlns="http://www.w3.org/2000/svg">
<path fill-rule="evenodd" clip-rule="evenodd" d="M14.0499 0.000320435C14.4838 0.000320435 14.9 0.17272 15.2069 0.479603L17.5211 2.79376C17.828 3.10065 18.0004 3.51686 18.0004 3.95085V15.5458C18.0004 16.9014 16.9015 18.0003 15.5458 18.0003H2.45491C1.09931 18.0003 0.000366211 16.9014 0.000366211 15.5458V2.45487C0.000366211 1.09926 1.09931 0.000320435 2.45491 0.000320435H14.0499ZM2.45491 1.63668C2.00305 1.63668 1.63673 2.003 1.63673 2.45487V15.5458C1.63673 15.9977 2.00305 16.364 2.45491 16.364H3.27309V11.4549C3.27309 10.0992 4.37203 9.00032 5.72764 9.00032H12.2731C13.6287 9.00032 14.7276 10.0992 14.7276 11.4549V16.364H15.5458C15.9977 16.364 16.364 15.9977 16.364 15.5458V4.76904C16.364 4.33504 16.1916 3.91883 15.8847 3.61195L14.3887 2.11597C14.0818 1.80908 13.6656 1.63668 13.2317 1.63668H13.0913V3.27305C13.0913 4.62865 11.9924 5.72759 10.6367 5.72759H7.364C6.0084 5.72759 4.90946 4.62865 4.90946 3.27305V1.63668H2.45491ZM13.0913 16.364V11.4549C13.0913 11.003 12.725 10.6367 12.2731 10.6367H5.72764C5.27577 10.6367 4.90946 11.003 4.90946 11.4549V16.364H13.0913ZM6.54582 1.63668H11.4549V3.27305C11.4549 3.72491 11.0886 4.09123 10.6367 4.09123H7.364C6.91214 4.09123 6.54582 3.72491 6.54582 3.27305V1.63668Z" fill="#187C9A" stroke="#187C9A" stroke-width="0.00064"/>
</svg>
