<svg width="54" height="54" viewBox="0 0 54 54" fill="none" xmlns="http://www.w3.org/2000/svg">
<g filter="url(#filter0_d_1_39)">
<path fill-rule="evenodd" clip-rule="evenodd" d="M30.0848 20.7667H23.3303C22.5048 20.7667 21.8333 21.4372 21.8333 22.2637V29.2697C21.8333 30.0952 22.5038 30.7667 23.3303 30.7667H30.3363C31.1618 30.7667 31.8333 30.0962 31.8333 29.2697V22.5152V22.7667L30.8333 24.2667V29.2697C30.8333 29.5437 30.6098 29.7667 30.3363 29.7667H23.3303C23.0563 29.7667 22.8333 29.5432 22.8333 29.2697V22.2637C22.8333 21.9897 23.0568 21.7667 23.3303 21.7667H28.3363L29.8333 20.7667H30.0848ZM30.7838 21.1197C30.9788 20.9247 31.2938 20.9237 31.4903 21.1202C31.6858 21.3157 31.6858 21.6322 31.4908 21.8267L27.2478 26.0697L26.1873 26.4232L26.5408 25.3627L30.7838 21.1197Z" fill="white"/>
<path fill-rule="evenodd" clip-rule="evenodd" d="M30.0848 20.7667H23.3303C22.5048 20.7667 21.8333 21.4372 21.8333 22.2637V29.2697C21.8333 30.0952 22.5038 30.7667 23.3303 30.7667H30.3363C31.1618 30.7667 31.8333 30.0962 31.8333 29.2697V22.5152V22.7667L30.8333 24.2667V29.2697C30.8333 29.5437 30.6098 29.7667 30.3363 29.7667H23.3303C23.0563 29.7667 22.8333 29.5432 22.8333 29.2697V22.2637C22.8333 21.9897 23.0568 21.7667 23.3303 21.7667H28.3363L29.8333 20.7667H30.0848ZM30.7838 21.1197C30.9788 20.9247 31.2938 20.9237 31.4903 21.1202C31.6858 21.3157 31.6858 21.6322 31.4908 21.8267L27.2478 26.0697L26.1873 26.4232L26.5408 25.3627L30.7838 21.1197Z" stroke="white"/>
</g>
<defs>
<filter id="filter0_d_1_39" x="1.90735e-06" y="-8.34465e-07" width="53.6667" height="53.6667" filterUnits="userSpaceOnUse" color-interpolation-filters="sRGB">
<feFlood flood-opacity="0" result="BackgroundImageFix"/>
<feColorMatrix in="SourceAlpha" type="matrix" values="0 0 0 0 0 0 0 0 0 0 0 0 0 0 0 0 0 0 127 0" result="hardAlpha"/>
<feOffset dy="1.06667"/>
<feGaussianBlur stdDeviation="10.6667"/>
<feColorMatrix type="matrix" values="0 0 0 0 0 0 0 0 0 0 0 0 0 0 0 0 0 0 0.1 0"/>
<feBlend mode="normal" in2="BackgroundImageFix" result="effect1_dropShadow_1_39"/>
<feBlend mode="normal" in="SourceGraphic" in2="effect1_dropShadow_1_39" result="shape"/>
</filter>
</defs>
</svg>
